<?xml version="1.0" encoding="utf-8"?>
<!-- Generator: Adobe Illustrator 23.0.4, SVG Export Plug-In . SVG Version: 6.00 Build 0)  -->
<svg version="1.1" id="Layer_1" xmlns="http://www.w3.org/2000/svg" xmlns:xlink="http://www.w3.org/1999/xlink" x="0px" y="0px"
	 viewBox="0 0 706 215" style="enable-background:new 0 0 706 215;" xml:space="preserve">
<style type="text/css">
	.st0{fill:none;}
	.st1{fill:#2A22A9;}
	.st2{font-family:'ArialMT';}
	.st3{font-size:18.1657px;}
	.st4{fill:url(#SVGID_1_);enable-background:new    ;}
	.st5{enable-background:new    ;}
	.st6{fill:url(#SVGID_2_);enable-background:new    ;}
	.st7{fill:#ABABAB;enable-background:new    ;}
	.st8{fill:#FEFEFE;enable-background:new    ;}
	.st9{fill:#DB102D;enable-background:new    ;}
	.st10{fill:#FBCF17;}
	.st11{fill:#FBD01A;}
	.st12{fill:#0041B7;enable-background:new    ;}
</style>
<path class="st0" d="M229.4,158"/>
<path class="st0" d="M290.2,152.6c-1.2,0-2.3,0-3.5-0.1"/>
<path class="st1" d="M329.4,159.5c16.6,0,31.5-8.8,41.3-22.6h6.7c-12.2,16.7-32,27.6-54.3,27.6c-37.1,0-67.1-30-67.1-67.1
	s30-67.1,67.1-67.1c12.2,0,23.6,3.2,33.4,8.9l18.7-8.9v51.4h-5c0,0-1.4-28.2-18.8-37.6c-16.3-8.8-30.1-8.8-35.1-1.3v102.9
	c0,0,0,5,3.8,8.8C325,159.5,329.4,159.5,329.4,159.5z"/>
<path class="st1" d="M638,159.5c16.6,0,31.5-8.8,41.3-22.6h6.7c-12.2,16.7-32,27.6-54.3,27.6c-37.1,0-67.1-30-67.1-67.1
	s30-67.1,67.1-67.1c12.2,0,23.6,3.2,33.4,8.9l18.7-8.9v51.4h-5c0,0-1.4-28.2-18.8-37.6c-16.3-8.8-30.1-8.8-35.1-1.3v102.9
	c0,0,0,5,3.8,8.8C633.6,159.5,638,159.5,638,159.5z"/>
<path class="st1" d="M512.5,130.9l-10.4,13.3c-5.1-2.5-10-5.9-14.7-10.3c-3.6,3.3-7.5,5.7-11.6,7.2c-4.1,1.6-8.9,2.3-14.6,2.3
	c-11.2,0-19.6-3.1-25.2-9.4c-4.4-4.9-6.6-10.5-6.6-16.8c0-5.8,1.7-10.9,5.1-15.5s8.6-8.6,15.4-12c-3.1-3.6-5.4-7.1-6.9-10.4
	c-1.6-3.3-2.3-6.4-2.3-9.3c0-5.4,2.2-10,6.5-13.8s10.5-5.7,18.6-5.7c7.8,0,13.8,2,18.2,5.9c4.4,4,6.6,8.8,6.6,14.5
	c0,3.6-1.1,7.1-3.2,10.3c-2.2,3.3-6.5,7-13.1,11.1l12.5,16.5c1.5-2.6,2.7-6,3.8-10.2l15.6,3.6c-1.6,5.5-2.9,9.5-4,12.1
	s-2.4,4.7-3.7,6.4c1.9,1.8,4.4,3.8,7.4,5.9C508.8,128.8,511.1,130.2,512.5,130.9z M458.9,100.8c-4,2-6.9,4.4-8.9,7.2
	c-2,2.8-2.9,5.7-2.9,8.6c0,3.7,1.2,6.7,3.6,9.1c2.4,2.3,5.7,3.5,9.8,3.5c2.7,0,5.3-0.5,7.8-1.6s5.2-2.8,8.1-5.3L458.9,100.8z
	 M465.7,82.1l4.7-3.6c3.4-2.7,5.1-5.3,5.1-7.9c0-2.2-0.8-4.1-2.5-5.6c-1.7-1.6-3.9-2.3-6.7-2.3c-2.7,0-4.9,0.7-6.4,2.1
	c-1.6,1.4-2.3,2.9-2.3,4.7c0,2.1,1.3,4.7,3.9,7.7L465.7,82.1z"/>
<path class="st1" d="M195.5,62.6c0,0-1.8,3.8-4.2,4.3s-7.5,1-8.5,0.8c0,0-0.3,2.7-3.3,4.2c-3,1.4-6.9,1.3-6.9,1.3s0.8,3,0,4.7
	c-0.8,1.6-2.7,2.4-2.7,2.4s1.4,2.4,0.7,3.9s-1.9,3.2-3.6,3.5c0,0,5,1.6,7.1-3.2c0,0,11.2,2.4,11.1-3.1c0,0,9.4,1.8,9.7-3
	c0,0,7.5,2.2,8-0.8c0,0,20.2,2,27.7-7C230.6,70.4,208.4,68.3,195.5,62.6z"/>
<text transform="matrix(1 0 0 1 263.7407 196.5889)" class="st1 st2 st3">International Human Resource Management Services</text>
<g>
	<linearGradient id="SVGID_1_" gradientUnits="userSpaceOnUse" x1="74.4941" y1="45.5393" x2="124.7985" y2="45.5393">
		<stop  offset="0" style="stop-color:#FEDF01"/>
		<stop  offset="0.6943" style="stop-color:#FFC600"/>
		<stop  offset="1" style="stop-color:#FCCD03"/>
	</linearGradient>
	<path class="st4" d="M74.5,46.9c0,0,3.4-7.6,13.7-7.6s17.4,0.7,23.4,0.8c4.9,0.1,8.2-4.1,10.4-6.2l2.9,10.6c0,0-3.7,5.9-9,6.1
		c-7.1,0.3-15-0.4-20.5-0.7c-5.5-0.2-11.4-1-17.9,7.3L74.5,46.9z"/>
	<path class="st5" d="M68.8,26.8c0,0,3.1-7.6,13.4-7.6s19.3,2.3,24,1c4.7-1.2,7.9-4.9,10.1-7l2.9,10.6c0,0-4,4.6-8.8,6.8
		c-4.4,2-15.4,0-20.9-0.3c-5.5-0.2-11.2-2-17.6,6.3L68.8,26.8z"/>
	<linearGradient id="SVGID_2_" gradientUnits="userSpaceOnUse" x1="71.4563" y1="35.0386" x2="121.961" y2="35.0386">
		<stop  offset="0" style="stop-color:#F10109"/>
		<stop  offset="0.2691" style="stop-color:#FD0001"/>
		<stop  offset="0.6943" style="stop-color:#D30405"/>
		<stop  offset="1" style="stop-color:#D80301"/>
	</linearGradient>
	<path class="st6" d="M71.5,36.8c0,0,3.2-7.4,13.5-7.4s19.3,2.3,24,1c4.7-1.2,7.9-4.9,10.1-7l2.9,10.6c0,0-3.7,5.9-9,6.1
		c-5.3,0.1-15-0.4-20.5-0.7c-5.5-0.2-11.4-1-17.9,7.3L71.5,36.8z"/>
	<polygon class="st7" points="67.9,27 68.3,26.4 68.9,26.2 80.2,65.8 79,66.1 	"/>
</g>
<polygon class="st7" points="49.1,38 49.1,37.3 49.5,36.8 79.2,65.3 79.5,66.3 78.3,66.1 "/>
<polygon class="st8" points="49.1,38 44.2,41.4 42.6,61 44.6,63.7 47.6,64.3 68,60.2 72,60.1 "/>
<path class="st9" d="M72,60.1c0,0-18.7-2.7-27.4,3.7c0,0-2.4,7.3-5.5,10.5c-3.1,3.2-7,7.5-12.7,9.7L38,95.6c0,0,10.3-1.8,14.8-11.7
	S59.9,61.7,72,60.1z"/>
<path class="st10" d="M53.4,46.3C53.5,46.3,53.5,46.3,53.4,46.3c0.1,0,0.1,0.1,0.2,0.1c0.2,0.1,0.3,0.3,0.2,0.5c0,0,0,0,0,0
	c0,0.3,0,0.6-0.1,1c0,0.4-0.1,0.9-0.1,1.3c0,0.2,0,0.2,0.2,0.2c0,0,0,0,0,0c0.1-0.8,0.2-1.6,0.3-2.4c0.1,0.1,0.2,0.2,0.3,0.3
	c0,0,0,0,0,0.1c0,0.1-0.1,0.3-0.1,0.4c0,0.2-0.1,0.4-0.1,0.7c0,0.2-0.1,0.4-0.1,0.6c0,0.1-0.1,0.3-0.1,0.4c0.4,0.1,0.7,0.2,1,0.4
	c0,0,0-0.1,0.1-0.1c0.4-0.6,0.8-1.1,1.1-1.7c0,0,0,0,0.1,0c0.1,0,0.2,0,0.4,0c-0.1,0.1-0.2,0.2-0.3,0.4c-0.4,0.5-0.7,0.9-1.1,1.4
	c-0.1,0.2-0.1,0.1,0,0.3c0,0,0,0,0,0c0.2-0.2,0.3-0.4,0.5-0.5c0.4-0.5,0.8-1,1.3-1.4c0,0,0,0,0.1-0.1c0.2,0,0.3,0,0.5,0
	c0,0.1,0,0.2,0,0.3c0,0.1,0,0.2-0.2,0.3c-0.4,0.3-0.8,0.7-1.2,1c-0.2,0.2-0.4,0.4-0.7,0.6c0,0-0.1,0.1,0,0.1c0,0.1,0.1,0.1,0.1,0
	c0.1-0.1,0.2-0.2,0.3-0.2c0.5-0.4,1-0.7,1.4-1.1c0,0,0.1-0.1,0.2-0.1c0,0.2,0,0.3,0,0.4c0,0,0,0,0,0.1c-0.1,0.1-0.3,0.2-0.4,0.3
	c-0.4,0.3-0.9,0.6-1.3,0.9c0,0-0.1,0.1,0,0.1c0.1,0.1,0.1,0.2,0.2,0.4c0.1,0.2,0.1,0.4,0.2,0.6c0.2,0,0.3-0.1,0.5-0.1
	c0.2,0,0.3-0.1,0.5-0.1c0.2,0,0.3-0.1,0.5-0.1c0.2,0,0.4-0.1,0.6-0.1c0,0,0.1,0,0.1,0c0.1,0.1,0.2,0.2,0.3,0.3
	c-0.8,0.1-1.6,0.2-2.4,0.3c0,0.1,0,0.1,0,0.2c0.2,0,0.3,0,0.5,0c0.4,0,0.8-0.1,1.1-0.1c0.3,0,0.6,0,0.9,0c0,0,0.1,0,0.1,0
	c0.1,0,0.1,0,0.2,0.1c0,0,0,0,0.1,0.1c0.1,0.1,0.2,0.1,0.2,0.2c0,0,0,0,0,0c0,0,0,0,0,0c-0.1,0.1-0.2,0.2-0.3,0.3
	c0,0-0.1,0.1-0.1,0.1c-0.2,0-0.4,0-0.6,0c-0.2,0-0.4,0-0.6,0c-0.3,0-0.6,0-0.9,0c0,0,0,0,0,0c-0.2,0-0.3,0-0.5,0c0,0.1,0,0.1,0,0.1
	c0,0,0,0.1,0.1,0.1c0.2,0,0.3,0,0.5,0.1c0.2,0,0.5,0.1,0.7,0.1c0.1,0,0.2,0,0.3,0c0.3,0,0.5,0.1,0.8,0.1c0,0,0,0,0.1,0
	c-0.1,0.1-0.2,0.2-0.2,0.3c0,0,0,0-0.1,0c-0.1,0-0.1,0-0.2,0c-0.2,0-0.3-0.1-0.5-0.1c-0.1,0-0.3-0.1-0.4-0.1c-0.2,0-0.3-0.1-0.5-0.1
	c-0.1,0-0.3,0-0.4-0.1c-0.1,0-0.1,0-0.1,0.1c-0.1,0.3-0.2,0.6-0.3,0.9c0,0.1,0,0.1,0,0.2c0.6,0.4,1.1,0.7,1.7,1.1c0,0,0,0,0,0.1
	c0,0.1,0,0.3,0,0.4c-0.7-0.5-1.3-1-2-1.5c0,0.1-0.1,0.1-0.1,0.2c0.3,0.3,0.6,0.5,0.9,0.8c0.4,0.3,0.7,0.6,1.1,1c0,0,0,0.1,0,0.1
	c0,0.2,0,0.3,0,0.5c-0.2,0-0.3,0-0.5,0c0,0,0,0-0.1,0c-0.5-0.5-0.9-1.1-1.4-1.6c-0.1-0.1-0.2-0.3-0.4-0.4c0,0-0.1,0-0.1,0.1
	c0,0,0,0.1,0,0.1c0.4,0.5,0.7,1,1.1,1.5c0.1,0.1,0.2,0.3,0.3,0.4c-0.1,0-0.2,0-0.4,0c0,0-0.1,0-0.1-0.1c-0.2-0.4-0.5-0.7-0.7-1.1
	c-0.2-0.2-0.3-0.5-0.5-0.7c0,0,0,0,0,0c-0.3,0.2-0.6,0.3-0.9,0.4C54,54.9,54,54.9,54,55c0,0.2,0.1,0.4,0.1,0.6
	c0,0.2,0.1,0.4,0.1,0.6c0,0.2,0.1,0.5,0.1,0.7c0,0.1,0,0.2-0.1,0.2c0,0-0.1,0.1-0.1,0.1c0,0,0,0-0.1,0c0,0,0-0.1,0-0.1
	c0-0.3-0.1-0.6-0.1-1c0-0.3-0.1-0.5-0.1-0.8c0-0.2,0-0.3-0.1-0.5c-0.1,0-0.1,0-0.2,0c0,0.2,0,0.4,0,0.6c0,0.3,0,0.5,0,0.8
	c0,0.4,0.1,0.8,0.1,1.2c0,0,0,0.1,0,0.1c-0.1,0.1-0.2,0.2-0.3,0.3c0,0,0,0,0,0c-0.1-0.1-0.2-0.2-0.3-0.3c-0.1-0.1-0.1-0.1-0.1-0.2
	c0-0.2,0-0.5,0.1-0.7c0-0.4,0.1-0.8,0.1-1.2c0-0.2,0-0.3,0-0.5c0-0.1,0-0.2,0-0.2c-0.1,0-0.1,0-0.2,0c-0.1,0.8-0.2,1.6-0.3,2.4
	c0,0,0,0,0,0c0-0.1-0.1-0.1-0.1-0.2c-0.1-0.1-0.1-0.2-0.1-0.3c0-0.2,0.1-0.5,0.1-0.7c0-0.2,0.1-0.4,0.1-0.6c0-0.2,0.1-0.4,0.1-0.6
	c-0.1,0-0.1,0-0.2,0c-0.3-0.1-0.5-0.2-0.8-0.3c0,0-0.1,0-0.1,0c-0.3,0.5-0.7,1-1,1.5c-0.1,0.1-0.1,0.3-0.3,0.3c0,0,0,0,0,0
	c-0.1,0-0.2,0-0.3,0c0.5-0.7,1-1.3,1.5-1.9c0,0-0.1,0-0.1-0.1c0,0-0.1,0-0.1,0c-0.6,0.6-1.1,1.3-1.7,1.9c0,0-0.1,0-0.1,0
	c-0.2,0-0.3,0-0.5,0c0-0.2,0-0.3,0-0.4c0,0,0-0.1,0.1-0.1c0.1-0.1,0.2-0.2,0.3-0.2c0.5-0.4,1-0.9,1.5-1.3c0.1-0.1,0.1-0.1,0.2-0.2
	c0,0,0,0,0-0.1c0-0.1-0.1-0.1-0.2,0c-0.6,0.4-1.1,0.9-1.7,1.3c0,0-0.1,0-0.1,0.1c0-0.1,0-0.2,0-0.3c0,0,0,0,0-0.1
	c0.4-0.3,0.9-0.6,1.3-0.9c0.2-0.1,0.3-0.2,0.5-0.3c-0.2-0.3-0.4-0.7-0.4-1c-0.1,0-0.1,0-0.2,0c-0.2,0-0.3,0.1-0.5,0.1
	c-0.1,0-0.3,0.1-0.4,0.1c-0.1,0-0.3,0.1-0.4,0.1c-0.2,0-0.3,0-0.5,0.1c-0.1,0-0.1,0-0.2-0.1c-0.1-0.1-0.1-0.1-0.2-0.2
	c0.1,0,0.3,0,0.4-0.1c0.1,0,0.3,0,0.4,0c0.1,0,0.2,0,0.3,0c0.2,0,0.4-0.1,0.7-0.1c0.1,0,0.3,0,0.4-0.1c0.1,0,0.1,0,0.2,0
	c0-0.2,0-0.2-0.2-0.2c0,0,0,0,0,0c-0.3,0-0.6,0-0.8,0c-0.3,0-0.6,0-0.9,0.1c-0.3,0-0.5,0-0.8,0c0,0-0.1,0-0.1,0
	c-0.1-0.1-0.1-0.1-0.2-0.2l0,0c0,0,0,0,0,0c0,0,0,0,0,0c0,0,0,0,0,0s0,0,0,0c0,0,0,0,0,0c0,0,0,0,0,0c0,0,0,0,0,0c0,0,0-0.1,0-0.1
	c0.1-0.1,0.2-0.2,0.3-0.3c0,0,0.1,0,0.1,0c0.1,0,0.2,0,0.3,0c0.2,0,0.3,0,0.5,0c0.2,0,0.4,0,0.6,0c0.2,0,0.3,0,0.5,0
	c0.2,0,0.4,0,0.6,0c0.1,0,0.1-0.1,0.1-0.1c0-0.1,0-0.1-0.1-0.1c-0.2,0-0.4-0.1-0.6-0.1c-0.2,0-0.5-0.1-0.7-0.1c-0.1,0-0.2,0-0.3,0
	c-0.2,0-0.3,0-0.5-0.1c-0.1,0-0.1,0-0.2,0c0.1-0.1,0.1-0.2,0.2-0.2c0,0,0.1,0,0.1,0c0.1,0,0.2,0,0.3,0.1c0.2,0,0.3,0.1,0.5,0.1
	c0.2,0,0.5,0.1,0.7,0.1c0.1,0,0.2,0,0.2,0.1c0.1,0,0.2,0,0.3,0.1c0.1-0.4,0.2-0.7,0.4-1c0,0,0,0-0.1-0.1c-0.6-0.4-1.1-0.7-1.7-1.1
	c0,0-0.1,0-0.1-0.1c0-0.1,0-0.2,0-0.4c0,0,0,0,0.1,0c0.6,0.5,1.2,0.9,1.8,1.4c0.1,0.1,0.1,0,0.1,0c0.1,0,0-0.1,0-0.1
	c-0.1-0.1-0.2-0.1-0.3-0.2c-0.6-0.5-1.1-1-1.7-1.5c0,0-0.1-0.1-0.1-0.1c0-0.1,0-0.3,0-0.5c0.2,0,0.3,0,0.4,0c0.1,0,0.1,0,0.1,0.1
	c0.6,0.6,1.1,1.3,1.7,1.9c0.1,0.1,0.1,0.1,0.2,0c0,0,0,0,0,0c-0.5-0.6-1-1.3-1.4-1.9c0,0,0,0,0,0c0.1,0,0.2,0,0.3,0
	c0.1,0,0.1,0,0.1,0.1c0.4,0.6,0.8,1.2,1.2,1.8c0.3-0.2,0.7-0.3,1-0.4c0-0.1,0-0.1,0-0.2c-0.1-0.3-0.1-0.6-0.2-0.8
	c-0.1-0.3-0.1-0.7-0.2-1c0,0,0-0.1,0-0.1c0.1-0.1,0.2-0.2,0.2-0.3c0.1,0.8,0.2,1.6,0.3,2.4c0.2,0,0.2,0,0.2-0.2
	c0-0.5-0.1-0.9-0.1-1.4c0-0.4-0.1-0.7-0.1-1.1c0,0,0-0.1,0.1-0.1C53.3,46.4,53.4,46.4,53.4,46.3z"/>
<path class="st11" d="M49.1,39.9c0.2,0.2,0.5,0.4,0.7,0.6c0.1,0.1,0.2,0.1,0.3,0c0.3-0.1,0.5-0.3,0.8-0.4c0,0,0,0,0,0
	c-0.1,0.3-0.2,0.6-0.3,0.8c-0.1,0.1,0,0.2,0.1,0.3c0.2,0.2,0.4,0.4,0.6,0.6c-0.1,0-0.2,0-0.3,0c0,0-0.1,0-0.1,0
	c-0.6-0.1-0.6-0.1-0.8,0.5c-0.1,0.2-0.2,0.3-0.2,0.5c-0.1-0.3-0.2-0.6-0.2-0.9c0-0.2-0.1-0.3-0.3-0.3c-0.2,0-0.5-0.1-0.7-0.1
	c0,0,0,0-0.1,0c0.3-0.2,0.5-0.3,0.7-0.4c0.1-0.1,0.1-0.1,0.1-0.3c0-0.2-0.1-0.4-0.1-0.6C49.1,40.1,49.1,40,49.1,39.9
	C49.1,39.9,49.1,39.9,49.1,39.9z"/>
<path class="st11" d="M66.7,56.6c0.2,0.2,0.5,0.4,0.7,0.6c0.1,0.1,0.2,0.1,0.3,0c0.3-0.1,0.5-0.3,0.8-0.4c0,0,0,0,0,0
	c-0.1,0.3-0.2,0.6-0.3,0.8c-0.1,0.1,0,0.2,0.1,0.3c0.2,0.2,0.4,0.4,0.6,0.6c-0.1,0-0.2,0-0.3,0c0,0-0.1,0-0.1,0
	c-0.6-0.1-0.6-0.1-0.8,0.5c-0.1,0.2-0.2,0.3-0.2,0.5c-0.1-0.3-0.2-0.6-0.2-0.9c0-0.2-0.1-0.3-0.3-0.3c-0.2,0-0.5-0.1-0.7-0.1
	c0,0,0,0-0.1,0c0.3-0.2,0.5-0.3,0.7-0.4c0.1-0.1,0.1-0.1,0.1-0.3c0-0.2-0.1-0.4-0.1-0.6C66.6,56.7,66.6,56.7,66.7,56.6
	C66.6,56.6,66.6,56.6,66.7,56.6z"/>
<path class="st11" d="M46.9,58.3c0.2,0.2,0.5,0.4,0.7,0.6c0.1,0.1,0.2,0.1,0.3,0c0.3-0.1,0.5-0.3,0.8-0.4c0,0,0,0,0,0
	c-0.1,0.3-0.2,0.6-0.3,0.8c-0.1,0.1,0,0.2,0.1,0.3c0.2,0.2,0.4,0.4,0.6,0.6c-0.1,0-0.2,0-0.3,0c0,0-0.1,0-0.1,0
	c-0.6-0.1-0.6-0.1-0.8,0.5c-0.1,0.2-0.2,0.3-0.2,0.5c-0.1-0.3-0.2-0.6-0.2-0.9c0-0.2-0.1-0.3-0.3-0.3c-0.2,0-0.5-0.1-0.7-0.1
	c0,0,0,0-0.1,0c0.3-0.2,0.5-0.3,0.7-0.4c0.1-0.1,0.1-0.1,0.1-0.3c0-0.2-0.1-0.4-0.1-0.6C46.9,58.5,46.9,58.4,46.9,58.3
	C46.9,58.3,46.9,58.3,46.9,58.3z"/>
<path class="st12" d="M49.1,38c0,0-6.7,1.3-4.5,25.7c0,0-1.2,7-6.2,12.2s-6.5,5.9-11.9,8L15,73c0,0,6.4,0.2,11.9-7.9
	S31.9,42.7,49.1,38z"/>
<path class="st1" d="M77.6,65.1c2.3,0.7,4.6,1.3,6.8,2c1,0.3,1.5,0,2.2-0.8c0.8-0.8,1.7-1.6,2.6-2.3c0.8-0.6,1.7-1.1,2.6-1.6
	c0.3-0.2,0.7-0.3,1-0.4c2.7-1,5.5-1.3,8.3-0.8c1.4,0.3,2.8,0.6,4.1,1c0.8,0.2,1.5,0.7,2.2,1.1c1,0.6,2.1,1.1,3,1.8
	c1.4,1.1,2.7,2.4,3.9,3.7c0.5,0.5,0.5,1.5,0.8,2.3c0.6,1.7,1.1,3.3,1.7,5c0.6,1.4,1.1,2.9,1.9,4.2c0.6,1.1,1.5,2.1,2.2,3.1
	c0.2,0.2,0.3,0.4,0.5,0.6s0.5,0.4,0.7,0.5c0.1,0,0.1-0.1,0.2-0.2c-0.1-0.3-0.2-0.6-0.3-0.8c-1.3-1.6-2.3-3.4-3-5.4
	c-0.5-1.3-0.8-2.7-1.3-4c-0.7-1.7-1.1-3.5-1.2-5.2c-0.2-1.7,0-3.4,0.1-5.1c0-0.7,0.1-1.3,0.4-1.9c0.5-1.5,1-3,1.8-4.4
	c0.5-1,1.4-1.9,2.1-2.8c0.2-0.3,0.5-0.6,0.8-0.9c0.4-0.4,1-0.8,1.4-1.2c1.3-1.2,2.7-2.1,4.2-2.8c2-1,4.1-2,6.3-2.4
	c1-0.2,2-0.7,3.1-1c1.7-0.4,3.5-0.7,5.2-1.1c4.2-0.9,8.4-1.3,12.7-1.5c3.7-0.2,7.3-0.7,11-0.7c7.7-0.1,15.5-0.2,23.2-0.1
	c6.3,0.1,12.5,0.4,18.8,0.5c2.8,0.1,5.5,0.1,8.3,0.2c3,0,6,0.1,9,0.1c3.4-0.1,6.8-0.3,10.2-0.5c2-0.1,3.9-0.5,5.8-0.7
	c0.6-0.1,1.1-0.3,1.7-0.4c0.2,0,0.3,0.1,0.5,0.1c-0.1,0.2-0.1,0.4-0.3,0.5c-0.4,0.4-0.7,0.7-1.1,1c-1.1,0.8-2.1,1.7-3.2,2.5
	c-0.7,0.5-1.4,1-2.2,1.4c-1.5,0.8-3,1.6-4.6,2.2c-3,1.1-6,1.6-9.1,2.1c-2.6,0.4-5.1,0.5-7.7,0.5c-0.9,0-1.5,0.4-1.9,1.1
	c-0.6,1-1.5,1.4-2.6,1.6c-1.7,0.3-3.5,0.7-5.3,0.5c-0.2,0-0.7,0.3-0.8,0.5c-0.4,1.3-1.3,2-2.4,2.7c-1.8,1.3-3.9,1.4-6,1.7
	c-0.6,0.1-1.2,0.1-1.7,0.1s-0.8,0.3-0.7,0.8c0.3,1.2-0.4,1.8-1.3,2.4c-2,1.3-4.3,1.5-6.6,1.9c-1.1,0.2-2.3,0.2-3.5,0.2
	c-0.5,0-0.8,0.2-0.9,0.8c-0.1,1.1-0.7,1.8-1.5,2.4c-2.7,2.1-5.7,2.6-9,2.1c-0.2,0-0.5,0-0.7,0.2c-0.1,0.1,0,0.5,0.1,0.6
	c0.9,1.6,1.2,3.3,0.9,5.1c-0.2,1.1-1.1,2.1-2.4,1.9c-0.1,0-0.2,0-0.3,0c-0.2,0-0.5,0.1-0.7,0.2c0.1,0.2,0.1,0.5,0.2,0.7
	c0.8,1.3,0.8,2.8,0.5,4.2c-0.2,0.9-1.8,2-2.8,2c-0.9,0-1,0.1-0.6,0.9c0.8,1.7,0.9,3.5,0.4,5.3c-0.1,0.3-0.3,0.7-0.6,0.9
	c-0.6,0.6-1.2,1-1.8,1.6c-0.1,0.1-0.2,0.5-0.1,0.6c0.4,1.3,0.5,2.5-0.2,3.8c-0.4,0.6-0.6,1.2-1.1,1.7c-0.6,0.5-1.2,0.8-2,0.9
	c-0.2,0-0.5,0.2-0.7,0.3c0.1,0.2,0.2,0.5,0.3,0.7c0.4,0.6,0.8,1.3,1.3,1.9c0.2,0.3,0.6,0.6,0.8,0.9c0.4,0.6,0.8,1.2,1.2,1.8
	c0.9,1.2,1.8,2.4,2.7,3.6c1.4,2.1,2.8,4.2,4.1,6.2c0.9,1.3,1.8,2.5,2.7,3.8c0.8,1.2,1.6,2.4,2.5,3.5c0.9,1.2,1.9,2.5,3,3.5
	c1.3,1.3,2.7,2.4,4.1,3.6c0.3,0.3,0.8,0.4,1.2,0.7c1.8,1.3,3.6,2.7,5.4,4c1.6,1.1,3.2,2.2,4.7,3.3c1,0.7,2,1.6,3,2.3s2,1.4,2.9,2.1
	c1.9,1.4,3.8,2.7,5.8,4.1c1.2,0.9,2.4,1.8,3.6,2.7c1.4,0.9,2.8,1.8,4.1,2.8c1.1,0.7,2.1,1.6,3.1,2.3c0.7,0.5,1.4,0.9,2,1.3
	c2.2,1.6,4.3,3.2,6.5,4.7c1.8,1.3,3.7,2.6,5.6,4c1.1,0.8,2.2,1.7,3.4,2.6c1.3,1,2.7,1.8,4,2.8c1,0.7,2,1.5,2.9,2.2
	c0.8,0.6,1.7,1.2,2.5,1.9c0.8,0.6,1.6,1.1,2.3,1.7c0.8,0.6,1.7,1.2,2.5,1.8c1.1,0.8,2.1,1.5,3.2,2.3c2.3,1.7,4.7,3.5,7,5.2
	c0.8,0.6,1.6,1.1,2.3,1.7c0.1,0.1,0.2,0.2,0.2,0.5c-0.3-0.1-0.6,0-0.8-0.2c-1.5-0.8-3.1-1.7-4.6-2.6c-1.5-0.9-2.9-1.8-4.4-2.8
	c-1.3-0.8-2.5-1.5-3.8-2.3c-1.1-0.7-2.2-1.5-3.4-2.3c-0.7-0.5-1.5-0.9-2.2-1.3c-1.6-1.1-3.3-2.2-4.9-3.2c-0.9-0.6-1.9-1.2-2.8-1.8
	c-0.9-0.6-1.8-1.3-2.7-1.9c-0.9-0.6-1.7-1.1-2.6-1.7c-0.2-0.1-0.3-0.2-0.4-0.4c-0.3-0.2-0.5-0.4-0.8-0.6c-0.8-0.5-1.7-1.1-2.6-1.6
	c-1.2-0.8-2.4-1.5-3.5-2.3c-0.5-0.3-1-0.6-1.4-1c-0.9-0.6-1.7-1.2-2.6-1.8c-0.7-0.5-1.5-0.9-2.3-1.3c-1-0.6-2-1.3-3-2
	c-0.3-0.2-0.7-0.5-1-0.7c-1.5-0.9-3.1-1.8-4.6-2.8c-1.2-0.7-2.3-1.5-3.5-2.2c-0.6-0.4-1.2-0.7-1.9-1c-1.2-0.6-2.3-1.1-3.5-1.7
	c-1.1-0.5-2.1-1-3.2-1.4c-1.1-0.4-2.2-0.8-3.4-0.6s-1.7,1-1.1,2.1c0.7,1.5,1.5,2.9,2.7,4c0.7,0.7,1.2,1.5,1.9,2.3
	c0.8,1,1.7,2,2.6,2.9c1.2,1.3,2.3,2.6,3.5,3.8c0.8,0.9,1.7,1.7,2.6,2.5c1,0.9,1.9,1.9,2.9,2.8c1.3,1.2,2.6,2.5,3.8,3.7
	s2.4,2.4,3.6,3.5c1.7,1.6,3.4,3.2,5.1,4.8c0.8,0.8,1.6,1.6,2.5,2.4c0.8,0.8,1.7,1.6,2.6,2.4c0.9,0.9,1.9,1.8,2.8,2.7
	c1,0.9,2,1.9,3,2.8c0.6,0.6,1.2,1.2,1.8,1.7c0.8,0.8,1.7,1.7,2.5,2.5c0.9,0.9,1.9,1.7,2.8,2.6c0.9,0.9,1.7,1.8,2.5,2.7
	c0.2,0.2,0.5,0.4,0.7,0.6c0.8,0.8,1.6,1.6,2.4,2.5c0.2,0.2,0.2,0.5,0.4,0.8l-0.1,0.1c-0.3-0.2-0.7-0.4-1-0.6c-1-0.8-1.9-1.7-2.9-2.5
	c-1.2-1.1-2.5-2.1-3.7-3.1c-1.8-1.5-3.7-3-5.5-4.6c-1-0.8-1.9-1.7-2.9-2.5c-0.9-0.8-1.9-1.5-2.8-2.3c-0.1-0.1-0.1-0.1-0.2-0.1
	c-1.9-1.7-3.8-3.4-5.7-5c-0.9-0.8-1.8-1.4-2.7-2.2c-0.8-0.7-1.6-1.4-2.4-2.2c-0.9-0.8-1.7-1.7-2.6-2.4c-0.9-0.8-1.9-1.5-2.8-2.3
	c-1.3-1.1-2.5-2.2-3.7-3.3c-0.9-0.8-1.8-1.5-2.7-2.3c-0.8-0.7-1.6-1.5-2.4-2.3c-1-0.9-2-1.7-3-2.6c-1.1-0.9-2.2-1.9-3.2-2.9
	c-1.8-1.6-3.6-3.1-5.4-4.7c-0.8-0.7-1.6-1.5-2.4-2.3c-0.3-0.2-0.6-0.4-0.9-0.7c-1-0.9-2-1.9-3.1-2.8c-1-0.9-2.1-1.8-3.1-2.7
	c-1.8-1.5-3.5-3.1-5.2-4.7c-1.1-0.9-2.2-1.8-3.2-2.8c-0.6-0.6-1.4-0.9-2.2-1.2c-1.8-0.7-3.6-1.5-5.3-2.1c-2.8-1.1-5.6-2.1-8.4-3.1
	c-1.8-0.7-3.7-1.2-5.4-2c-1.6-0.8-3.3-1.3-4.9-2c-2.8-1.1-5.6-2.3-8.4-3.4c-1.5-0.7-3-1.4-4.5-2.1c-0.5-0.2-1.1-0.4-1.6-0.7
	c-1.6-0.7-3.3-1.5-4.9-2.3c-1.2-0.6-2.4-1.2-3.6-1.9c-1.3-0.8-2.5-1.6-3.7-2.5s-2.4-1.8-3.6-2.8c-1.5-1.3-2.9-2.8-4.2-4.2
	c-1.1-1.1-2-2.3-3.1-3.5c-0.8-0.9-1.6-1.9-2.4-2.8c-0.6-0.7-1.1-1.4-1.6-2.1c-0.7-0.9-1.3-1.8-2-2.7c-0.4-0.6-0.7-1.2-1.1-1.7
	c-1.1-1.6-2.2-3.2-3.2-4.9c-1.4-2.4-2.8-4.9-4.2-7.4c-0.6-1.1-1.1-2.2-1.7-3.3c-0.6-1.2-1.2-2.5-1.8-3.7c-0.5-1.1-0.9-2.2-1.5-3.2
	c-0.6-1.1-1.4-2.2-2.2-3.2c-0.9-1.1-1.8-2-2.8-3c-0.8-0.8-1.5-1.7-2.3-2.6C77,64.9,77.3,65,77.6,65.1z"/>
</svg>
